<?xml version="1.0" encoding="UTF-8"?>
<svg id="Layer_1" xmlns="http://www.w3.org/2000/svg" version="1.1" viewBox="0 0 32 32">
  <!-- Generator: Adobe Illustrator 29.8.7, SVG Export Plug-In . SVG Version: 2.1.1 Build 1)  -->
  <path d="M15.28,25.66c-.09.07-.21.07-.32.08-1.29.11-2.72-.09-4.02,0l-.26-.17.02-15.85.13-.11,4.4.02.11.2.02,15.52-.08.32Z"/>
  <path d="M22.55,17.03h4.48l.1.15v8.43s-.07.11-.07.11l-4.48-.03-.09-.22c.16-2.63-.21-5.5,0-8.1,0-.12.04-.22.06-.33Z"/>
  <polygon points="4.93 17.04 9.33 17.06 9.41 17.16 9.42 25.55 9.27 25.7 5.03 25.74 4.79 25.61 4.79 17.15 4.93 17.04"/>
  <path d="M16.74,17.04c.51.05,4.3-.13,4.43.05.05.07.08.35.09.46.21,2.49-.16,5.28,0,7.8l-.12.36-4.3.03-.24-.12v-8.47l.13-.11Z"/>
  <path d="M16.74,6.26c.53.04,4.27-.11,4.43.05.07.07.09.23.09.33-.11,1.78.14,3.73,0,5.49-.01.15-.03.3-.12.43l-4.51-.06-.02-6.13.13-.11Z"/>
  <path d="M22.65,11.44c.53.04,4.27-.11,4.43.05.08.08.08.23.09.33.1,1.17-.08,2.47,0,3.66,0,.18-.15.33-.33.33-1.29-.12-2.83.15-4.09,0-.25-.03-.25-.17-.27-.4-.11-1.22.06-2.64.03-3.87l.13-.11Z"/>
</svg>