<?xml version="1.0" encoding="UTF-8"?>
<svg id="Layer_1" xmlns="http://www.w3.org/2000/svg" version="1.1" viewBox="0 0 1029.47 537.06">
  <!-- Generator: Adobe Illustrator 29.8.7, SVG Export Plug-In . SVG Version: 2.1.1 Build 1)  -->
  <defs>
    <style>
      .st0 {
        fill: #fff;
      }
    </style>
  </defs>
  <path class="st0" d="M1026.73-243.47V780.53H2.73V-243.47h1024ZM400.35,48.24l-37.86,7.09-1.1,34.87h-19.98v28.97h19.98v70.43c0,3.01,4.12,14.1,5.81,17.17,13.36,24.19,46.36,23.32,69.05,14.21l-3.93-28.88c-1.01-1.07-19.72,8.39-27.98-1.49-1.16-1.39-3.99-7.58-3.99-9v-62.44h31.97v-28.97h-31.97v-41.96ZM294.14,179.42c5.54,6.11,2.21,14.71-5.14,17.71-12.32,5.02-28.97-.36-39.43-7.6-1.88-1.3-7.46-7.88-9.48-7.41-5,7.28-12.99,14.1-17.6,21.45-.54.86-1.47,1.3-.52,2.49,27.61,30.81,113.2,31.11,112.54-22.46-.51-41.32-40.79-35.83-65.4-48.58-10.96-5.68-6.15-18.29,5.98-19.75,14.02-1.68,25.84,3.33,35.85,12.83l18.52-21.44c-22.82-29.52-97.13-27.08-102.68,16.24-2.73,21.28,6.46,34.09,25.36,42.06,8.63,3.64,37.62,9.6,42,14.44ZM577.17,167.13v-21.48c0-26.71-24.28-52.35-49.72-57.17-58.38-11.06-97.98,40.48-79.18,95.16,17.39,50.6,92.4,58.22,123.95,17.95l-21.51-20.46c-18.83,25.34-64.89,21.35-67.44-14h93.91ZM638.11,106.19v-15.98h-37.96v133.87h38.96v-82.42c0-5.81,5.79-15.99,10.66-19.31,7.88-5.38,22.42-4.96,28.13,3.5,1.01,1.5,4.17,8.48,4.17,9.82v86.92l1.5,1.5h38.46v-82.42c0-3.91,4.59-13.55,7.46-16.52,8.67-8.97,26.75-8.77,33.05,2.98,1.15,2.15,3.45,9.47,3.45,11.54v84.42h38.96v-97.4c0-2.37-3.01-12.22-4.12-14.86-12.37-29.23-54.25-31.64-76.27-12.59-2.18,1.89-7.36,8.98-9.01,8.97-10.16-20.15-34.97-25.04-55.24-18.27-9.87,3.3-14.79,9.65-22.2,16.26ZM570.19,345.95c-11.12-26.62-14.39-57.33-24.24-84.16-6.2-16.87-16.87-26.62-26.89-5.42-11.41,24.14-11.78,55.16-25.3,78.57-3.59-.02-20.66-59.61-24.6-67.29s-9.23-13.3-18.43-9.69c-9.94,3.9-12.69,27.47-18.17,35.78-.75,1.13-1.04,2.21-2.73,2.27l-214.85-.06c-6.02.78-7.59,7.19-2.42,10.52l220.17.43c14.2-2.02,14.79-28.63,23.07-37.85,1.87-.03,6.31,12.29,7.24,14.72,6.23,16.24,11,42.17,20.04,55.89,7.55,11.45,17.3,9.24,23.19-2.18,8.93-17.35,12.55-44,18.7-63.22,1.7-5.29,3.17-12.43,7.25-16.22,2.09,5.23,3.88,10.58,5.51,15.98,6.61,22.04,10.98,50.71,19.72,71.19,3.57,8.36,8.36,15.34,18.72,12.15,10.21-3.14,16.08-48.3,21.67-50.22l224.64-.14c8.02-.08,7.25-10.12.03-11.06l-226.77.12c-16.75,2.59-14.8,39.74-25.53,49.88ZM674.79,338.17c-4.44.99-9.06,6.27-10.47,10.51-8.33,25.05,29.51,32.77,34.3,9.31,2.89-14.17-10.69-22.76-23.83-19.82ZM336.41,339.96l-29.97,2v143.86h29.97v-145.86ZM623.13,352.95l-28.97,5-1.01,26.97h-14.99v22.98h14.99v53.45c0,3.64,4.95,14.51,7.55,17.42,10.78,12.05,36.71,11.62,49.93,4.06l-3.55-21.98c-10.36,4.68-22.67,5.78-24.01-8.45-1.32-14.09,1.06-30.19.04-44.49h24.98v-22.98h-24.98v-31.97ZM157.56,413.88l13.99-16.48c-22.93-24.81-85.51-20.21-78.84,23.91,3.47,22.98,34.91,20.85,48.23,29.7,8.53,5.67,4.68,14.72-4.83,15.82-14.05,1.62-23.06-3.86-32.97-12.89-3.31,5.27-10.28,10.61-13.54,15.35-2.18,3.18,6.13,8.7,8.73,10.34,25.56,16.16,79.49,12.32,76.23-27.29-1.22-14.87-12.27-22.41-25.18-26.76-8.18-2.76-32.31-4.44-28.55-16.99,3.32-11.08,30.98-3.4,35.28,5.27h1.45ZM287.46,442.86v-18.48c0-19.37-21.84-39.38-40.58-41.34-77.01-8.05-81.94,100.27-11.74,105.65,18.33,1.4,38.7-4.64,49.23-20.52l-16.52-14.25c-1.5-.27-6.22,5.56-8.03,6.76-17.16,11.44-41.71,3.77-44.29-17.82h71.93ZM384.36,442.86h70.43c2.88-5.44,1.29-15.87.06-22.04-11.17-56.04-96.32-48.84-100.44,9.56-4.03,57.14,65.6,78.73,98.88,36.94l-17.66-13.34c-1.5-.23-6.1,5.34-7.98,6.69-16.49,11.8-41.54,3.41-43.28-17.81ZM571.18,412.87c-10.44-34.49-61.61-38.94-85.44-16.99-20.02,18.43-21.6,52.8-4.89,73.87,22.63,28.54,78.9,25.43,90.33-11.9l-24.96-10c-6.08,21.2-35.8,21.5-43.74,1.27-13.47-34.34,25.46-61.07,44.21-26.37l24.49-9.88ZM758.77,383.19c-32.94,3.75-50.33,35.52-43.06,66.48,13.19,56.15,104.04,51.11,108.09-9.44,2.65-39.69-27.44-61.32-65.03-57.04ZM939.82,485.82v-73.43c0-1.03-3.34-10.3-4.11-11.87-11.61-23.61-49.45-23.22-63.81-2.62v-12.99h-29.98v100.9h29.97v-60.44c0-1.37,3.15-8.28,4.16-9.82,6.98-10.58,24.34-12.09,31.01-.38.62,1.09,2.78,6.44,2.78,7.21v63.44h29.97ZM696.06,384.91h-29.97v100.9h29.97v-100.9Z"/>
  <path d="M638.11,106.19c7.41-6.62,12.33-12.97,22.2-16.26,20.27-6.77,45.08-1.87,55.24,18.27,1.65.01,6.83-7.08,9.01-8.97,22.01-19.05,63.9-16.65,76.27,12.59,1.12,2.64,4.12,12.49,4.12,14.86v97.4h-38.96v-84.42c0-2.07-2.29-9.39-3.45-11.54-6.3-11.75-24.38-11.95-33.05-2.98-2.87,2.97-7.46,12.61-7.46,16.52v82.42h-38.46l-1.5-1.5v-86.92c0-1.34-3.15-8.32-4.17-9.82-5.71-8.46-20.25-8.88-28.13-3.5-4.87,3.33-10.66,13.51-10.66,19.31v82.42h-38.96V90.2h37.96v15.98Z"/>
  <path d="M577.17,167.13h-93.91c2.55,35.36,48.6,39.34,67.44,14l21.51,20.46c-31.55,40.27-106.55,32.65-123.95-17.95-18.8-54.68,20.8-106.22,79.18-95.16,25.45,4.82,49.72,30.47,49.72,57.17v21.48ZM539.21,143.15c-1.95-37.75-52.67-35.93-55.95,0h55.95Z"/>
  <path d="M570.19,345.95c10.73-10.15,8.78-47.3,25.53-49.88l226.77-.12c7.21.94,7.99,10.98-.03,11.06l-224.64.14c-5.59,1.92-11.46,47.07-21.67,50.22-10.35,3.19-15.15-3.79-18.72-12.15-8.74-20.48-13.11-49.15-19.72-71.19-1.62-5.41-3.42-10.75-5.51-15.98-4.08,3.79-5.55,10.92-7.25,16.22-6.15,19.21-9.78,45.87-18.7,63.22-5.88,11.43-15.64,13.64-23.19,2.18-9.04-13.72-13.81-39.65-20.04-55.89-.93-2.43-5.37-14.75-7.24-14.72-8.28,9.22-8.86,35.83-23.07,37.85l-220.17-.43c-5.17-3.33-3.6-9.74,2.42-10.52l214.85.06c1.69-.05,1.98-1.13,2.73-2.27,5.49-8.31,8.23-31.87,18.17-35.78,9.21-3.61,14.57,2.17,18.43,9.69s21.01,67.27,24.6,67.29c13.52-23.41,13.89-54.44,25.3-78.57,10.03-21.2,20.69-11.45,26.89,5.42,9.86,26.83,13.12,57.54,24.24,84.16Z"/>
  <path d="M294.14,179.42c-4.38-4.84-33.37-10.8-42-14.44-18.9-7.97-28.09-20.78-25.36-42.06,5.55-43.32,79.86-45.76,102.68-16.24l-18.52,21.44c-10.01-9.51-21.83-14.52-35.85-12.83-12.13,1.46-16.94,14.07-5.98,19.75,24.61,12.75,64.88,7.26,65.4,48.58.66,53.57-84.92,53.27-112.54,22.46-.96-1.2-.02-1.63.52-2.49,4.61-7.35,12.6-14.17,17.6-21.45,2.02-.48,7.6,6.1,9.48,7.41,10.46,7.24,27.11,12.62,39.43,7.6,7.36-3,10.68-11.6,5.14-17.71Z"/>
  <path d="M400.35,48.24v41.96h31.97v28.97h-31.97v62.44c0,1.42,2.83,7.61,3.99,9,8.26,9.88,26.97.42,27.98,1.49l3.93,28.88c-22.69,9.12-55.68,9.99-69.05-14.21-1.69-3.07-5.81-14.16-5.81-17.17v-70.43h-19.98v-28.97h19.98l1.1-34.87,37.86-7.09Z"/>
  <path d="M758.77,383.19c37.59-4.28,67.68,17.35,65.03,57.04-4.05,60.55-94.89,65.59-108.09,9.44-7.28-30.96,10.12-62.73,43.06-66.48ZM764.75,407.16c-28.87,4.09-28.9,61.93,9.64,56.59,26.56-3.68,26.55-61.72-9.64-56.59Z"/>
  <path d="M287.46,442.86h-71.93c2.58,21.59,27.13,29.26,44.29,17.82,1.8-1.2,6.52-7.03,8.03-6.76l16.52,14.25c-10.52,15.87-30.89,21.92-49.23,20.52-70.2-5.37-65.28-113.69,11.74-105.65,18.74,1.96,40.58,21.96,40.58,41.34v18.48ZM258.48,424.88c-1.09-28.61-39.95-27.67-41.96,0h41.96Z"/>
  <path d="M384.36,442.86c1.74,21.22,26.8,29.61,43.28,17.81,1.88-1.35,6.48-6.91,7.98-6.69l17.66,13.34c-33.28,41.79-102.91,20.2-98.88-36.94,4.12-58.4,89.27-65.61,100.44-9.56,1.23,6.16,2.83,16.59-.06,22.04h-70.43ZM385.36,424.88h40.46c2.2-1.44-.06-6.83-1.01-8.98-9.28-21.18-39.55-12.59-39.45,8.98Z"/>
  <path d="M939.82,485.82h-29.97v-63.44c0-.76-2.16-6.12-2.78-7.21-6.68-11.71-24.04-10.2-31.01.38-1.01,1.54-4.16,8.45-4.16,9.82v60.44h-29.97v-100.9h29.97v12.99c14.37-20.61,52.21-21,63.82,2.62.77,1.57,4.11,10.84,4.11,11.87v73.43Z"/>
  <path d="M571.18,412.87l-24.49,9.88c-18.75-34.7-57.68-7.97-44.21,26.37,7.94,20.23,37.66,19.93,43.74-1.27l24.96,10c-11.43,37.33-67.69,40.43-90.33,11.9-16.71-21.07-15.13-55.43,4.89-73.87,23.83-21.94,75-17.5,85.44,16.99Z"/>
  <path d="M157.56,413.88h-1.45c-4.3-8.68-31.96-16.36-35.28-5.28-3.77,12.56,20.37,14.24,28.55,16.99,12.91,4.35,23.95,11.9,25.18,26.76,3.26,39.61-50.68,43.45-76.23,27.29-2.59-1.64-10.91-7.16-8.73-10.34,3.26-4.75,10.23-10.08,13.54-15.35,9.91,9.03,18.92,14.51,32.97,12.89,9.51-1.1,13.37-10.16,4.83-15.82-13.32-8.85-44.76-6.72-48.23-29.7-6.67-44.12,55.91-48.72,78.84-23.91l-13.99,16.48Z"/>
  <path d="M623.13,352.95v31.97h24.98v22.98h-24.98c1.02,14.31-1.36,30.41-.04,44.49,1.34,14.23,13.64,13.13,24.01,8.45l3.55,21.98c-13.22,7.56-39.16,7.99-49.93-4.06-2.6-2.91-7.55-13.78-7.55-17.42v-53.45h-14.99v-22.98h14.99l1.01-26.97,28.97-5Z"/>
  <polygon points="336.41 339.96 336.41 485.82 306.44 485.82 306.44 341.96 336.41 339.96"/>
  <rect x="666.09" y="384.91" width="29.97" height="100.9"/>
  <path d="M674.79,338.17c13.13-2.93,26.72,5.65,23.83,19.82-4.79,23.46-42.63,15.73-34.3-9.31,1.41-4.24,6.03-9.52,10.47-10.51Z"/>
  <path class="st0" d="M539.21,143.15h-55.95c3.28-35.93,54-37.75,55.95,0Z"/>
  <path class="st0" d="M764.75,407.16c36.2-5.13,36.21,52.91,9.64,56.59-38.55,5.34-38.51-52.5-9.64-56.59Z"/>
  <path class="st0" d="M258.48,424.88h-41.96c2.01-27.67,40.87-28.61,41.96,0Z"/>
  <path class="st0" d="M385.36,424.88c-.1-21.57,30.17-30.16,39.45-8.98.94,2.16,3.21,7.54,1.01,8.98h-40.46Z"/>
</svg>