<?xml version="1.0" encoding="UTF-8"?>
<svg id="Layer_1" xmlns="http://www.w3.org/2000/svg" version="1.1" viewBox="0 0 930.39 324.99">
  <!-- Generator: Adobe Illustrator 29.8.7, SVG Export Plug-In . SVG Version: 2.1.1 Build 1)  -->
  <defs>
    <style>
      .st0 {
        fill: #fff;
      }
    </style>
  </defs>
  <path class="st0" d="M972.38-361.39V662.61H-51.62V-361.39H972.38ZM498.86,37.21c1.53.38,1.6-.24,2.42-1.06,1.77-1.76,14.4-17.27,14.31-18.43-26.13-28.47-95.14-21.76-87.43,27.75,4.59,29.46,40.59,25.53,57.05,37.85,7.25,5.43,5.9,15.55-1.64,20.04-12.04,7.16-28.32,1.28-38.14-7.23-1.59-1.38-5.88-7.25-7.01-6.96l-15.42,18.62c21.76,32.65,97.51,29.67,95.88-18.09-1.05-31.04-28.28-31.96-50.26-40.73-8.13-3.25-16.42-7.87-12.43-17.98,5.61-14.22,37.76-6.86,42.68,6.23ZM29.8,3.25H-1.67l44.96,76.43v47.45h27.97v-47.45L116.21,3.25h-30.47l-28.46,50.95L29.8,3.25ZM564.77,7.25l-25.97,4.01-1.01,23.97h-13.99v19.98h13.99v47.45c0,2.84,4.04,12.5,5.8,15.18,6.58,10.05,20.33,12.25,31.54,11.17,2.65-.26,12.65-2.07,13.47-4.55l-1.86-19.31c-.72-.78-13.58,5.59-19.01-.47-.65-.73-2.96-5.48-2.96-6.03v-43.46h21.98v-19.98h-21.98V7.25ZM145.98,33.51c-57.01,5.8-55.29,91.81,1.67,95.65,72.36,4.89,70.73-103.01-1.67-95.65ZM344.99,35.22h-24.98v91.91h26.97v-50.45c0-1.23,2.7-7.86,3.57-9.42,5.39-9.66,16.48-10.4,26.4-8.07l1.05-24.31c-12.03-5.44-27.16,2.12-31.51,14.33-2.01-.02-1.49-12.07-1.5-14ZM684.66,88.17v-17.48c0-14.25-15.66-31.84-29.15-35.78-41.23-12.04-72.67,27.7-57.24,66.23,13.29,33.19,62.34,38.28,83.34,10.38l-14.42-13.4c-5.42,3.65-8.47,8.25-15.44,9.57-14.98,2.83-28.79-3.17-30.02-19.53h62.94ZM726.62,35.22h-25.97v91.91h25.97c1.72-18.51-2.82-42.41,1.23-60.21,2.67-11.71,19.76-16.87,25.77-6.25,1.18,2.08,2.97,8.97,2.97,11.02v55.45h26.97v-57.44c0-.54,1.94-5.63,2.43-6.56,4.47-8.47,17.39-11.61,23.55-3.44,1.39,1.85,3.99,9.07,3.99,10.99v56.44h25.97V57.7c0-.67-2.28-6.96-2.82-8.17-10.03-22.62-45.07-20.67-57.63-1.32-10.02-20.52-38.74-19.1-52.43-2.99v-9.99ZM901.16,106.87c-3.08,3.09-13.56,2.68-17.76,1.84-7.73-1.54-12.35-7.18-18.44-11.36-1.94,2.88-13.01,13.66-12.36,16.09.28,1.06,4.74,5.2,5.95,6.13,22.32,17.17,75.02,13.41,70.75-23.8-2.78-24.27-28.81-21.28-43.55-29.38-10.36-5.69-3.28-14.49,7.19-14.27,7.94.17,14.53,4.89,20.85,9,2.26-2.32,13.65-13.19,12.2-15.92-1.11-2.09-12.17-8.23-14.87-9.18-20.42-7.17-54.69-2.32-55.68,24.64-.52,14.09,7.3,21.64,19.51,26.52,5.94,2.37,38.08,7.74,26.22,19.68ZM241.09,35.22h-25.48l-1.09,2.04c2.56,20.43-1.42,43.21.6,63.39,2.66,26.62,30.5,36.42,51.42,22.46l7.51-6.96v10.98h25.98l-1-91.91h-26.97v59.44c0,.37-3.05,5.85-3.53,6.46-4.84,5.99-17.58,7.28-23.1,1.7-1.3-1.31-4.34-7.62-4.34-9.15v-58.44ZM771.57,158.1c-7.06.98-17.93-.2-24.48,1-1.12.21-1.87.51-2.5,1.5v45.46c-6.12-5.89-11.65-10.13-20.49-10.98-57.7-5.54-60.45,90.35-10.85,95.77,9.12,1,19.27-.08,26.36-6.36l5.97-6.5,1.01,10.98h24.98v-130.87ZM433.4,165.09c-18.89-1.74-40.28,1.3-59.44,0v123.88h27.97v-45.96h17.48l23.48,45.96h31.97l-27.05-51.36c26.71-8.76,30.77-50.72,7.39-65.35-5.81-3.64-15.01-6.54-21.8-7.17ZM145.18,288.97c-5.89-32.8,14.51-88.8-34.59-93.79-15.28-1.55-32.79,1.98-44.19,12.5l9.87,17.35c13.37-11.72,42.45-16.44,40.94,8.99-20.42-4.64-53.97-1.6-56.83,24.58-2.56,23.41,16.69,35.03,38.09,32.11,8.45-1.16,13.96-5.63,20.23-10.74l1.51,9h24.98ZM189.14,197.06h-25.97v91.91h26.97v-43.46c0-2.23,1.45-9.28,2.23-11.76,4.17-13.24,16.31-15.69,28.74-12.72l.42-25.08c-14.33-3.98-24.85,3.69-32.38,15.1v-13.99ZM317.02,250.01c4.56-24.4-9.57-51.5-35.74-54.67-67.66-8.2-72.81,90.92-11.75,95.66,17.12,1.33,34.3-3.16,44.41-17.66l-14.4-14.32c-12.96,17.21-42.99,15.07-45.46-9.01h62.94ZM570.77,250.01v-17.48c0-19.16-20.42-35.94-38.48-37.45-67.3-5.62-71.21,100.83,2.06,95.94,12.82-.86,26.2-6.82,33.34-17.67l-14.4-13.38c-3.48,1.85-5.59,4.82-9.18,6.83-15.05,8.43-35.1,1.9-36.27-16.79h62.94ZM665.68,288.97c-.51-7.19-1.79-15.33-2.04-22.44-.56-15.7,2.9-38.65-3.43-52.51-9.97-21.85-42.02-22.48-61.44-14.44-2.25.93-13.24,6.7-12.91,8.81l10.53,15.59c4.2-1.24,7.78-4.8,12.38-6.41,14.43-5.06,29.92-1.59,28.95,16.46-26.75-5.26-61.77,0-56.68,35.2,3.69,25.52,43.05,28.29,57.67,10.75l1.01,8.99h25.97ZM810.53,197.06h-28.97l34.94,88.47c.21,3.19-4.95,13.45-7.59,15.3-5.94,4.14-11.14.45-17.35.12l-2.53,20c9.51,4.84,22.96,5.72,32.55.53,11.01-5.95,15.23-19.52,19.68-30.27,12.84-31.04,22.96-63.28,36.21-94.16h-27.47l-19.98,57.95-19.48-57.95Z"/>
  <path d="M726.62,35.22v9.99c13.7-16.11,42.43-17.53,52.44,2.99,12.56-19.35,47.6-21.29,57.63,1.32.54,1.22,2.82,7.51,2.82,8.17v69.43h-25.97v-56.44c0-1.93-2.6-9.14-3.99-10.99-6.16-8.18-19.08-5.04-23.55,3.44-.49.93-2.43,6.02-2.43,6.56v57.44h-26.97v-55.45c0-2.05-1.79-8.94-2.97-11.02-6.01-10.61-23.1-5.46-25.77,6.25-4.05,17.8.49,41.7-1.23,60.21h-25.97V35.22h25.97Z"/>
  <path d="M433.4,165.09c6.8.63,15.99,3.53,21.8,7.17,23.38,14.64,19.32,56.6-7.39,65.35l27.05,51.36h-31.97l-23.48-45.96h-17.48v45.96h-27.97v-123.88c19.16,1.3,40.55-1.74,59.44,0ZM401.93,221.04h22.48c2.92,0,10.61-2.95,13-4.98,7.58-6.43,6.16-22.26-3.27-26.73-.81-.38-6.38-2.26-6.73-2.26h-25.48v33.97Z"/>
  <path d="M771.57,158.1v130.87h-24.98l-1.01-10.98-5.97,6.5c-7.09,6.28-17.24,7.36-26.36,6.36-49.6-5.43-46.84-101.31,10.85-95.77,8.84.85,14.37,5.09,20.49,10.98v-45.46c.63-.99,1.38-1.29,2.5-1.5,6.55-1.2,17.42-.02,24.48-1ZM721.36,217.28c-22.53,3.84-22.42,55.58,7.67,51.61,23.58-3.11,22.83-56.82-7.67-51.61Z"/>
  <path d="M498.86,37.21c-4.92-13.09-37.07-20.45-42.68-6.23-3.99,10.11,4.3,14.74,12.43,17.98,21.98,8.78,49.2,9.69,50.26,40.73,1.62,47.76-74.12,50.73-95.88,18.09l15.42-18.62c1.13-.29,5.42,5.58,7.01,6.96,9.81,8.51,26.1,14.39,38.14,7.23,7.54-4.49,8.89-14.61,1.64-20.04-16.47-12.33-52.47-8.39-57.05-37.85-7.71-49.51,61.3-56.22,87.43-27.75.09,1.16-12.54,16.67-14.31,18.43-.82.82-.88,1.43-2.42,1.06Z"/>
  <path d="M145.98,33.51c72.39-7.36,74.03,100.54,1.67,95.65-56.96-3.85-58.67-89.86-1.67-95.65ZM167.82,61.54c-1.63-1.83-6.43-5.02-8.83-5.65-33.43-8.78-36.98,47.64-9.22,51.18,23.7,3.02,31.15-30.75,18.05-45.52Z"/>
  <path d="M810.53,197.06l19.48,57.95,19.98-57.95h27.47c-13.25,30.88-23.38,63.12-36.21,94.16-4.45,10.75-8.67,24.32-19.68,30.27-9.59,5.19-23.04,4.3-32.55-.53l2.53-20c6.22.33,11.42,4.01,17.35-.12,2.64-1.84,7.8-12.11,7.59-15.3l-34.94-88.47h28.97Z"/>
  <path d="M317.02,250.01h-62.94c2.46,24.08,32.49,26.22,45.46,9.01l14.4,14.32c-10.11,14.5-27.29,18.99-44.41,17.66-61.06-4.74-55.92-103.86,11.75-95.66,26.17,3.17,40.31,30.27,35.74,54.67ZM254.08,233.03h35.47c.13,0,2.18,1.82,2.5-.52.62-4.54-4.98-13.44-9.29-15.67-13.04-6.73-27.71,1.72-28.67,16.18Z"/>
  <path d="M145.18,288.97h-24.98l-1.51-9c-6.27,5.11-11.78,9.59-20.23,10.74-21.4,2.93-40.65-8.69-38.09-32.11,2.86-26.18,36.41-29.22,56.83-24.58,1.51-25.43-27.57-20.71-40.94-8.99l-9.87-17.35c11.4-10.52,28.92-14.05,44.19-12.5,49.1,4.98,28.69,60.98,34.59,93.79ZM117.1,250.11c-8.12-1.55-17.77-3.5-25.19,1.06-14.43,8.87.71,29.1,18.65,17.65,7.53-4.81,7.2-10.49,6.55-18.71Z"/>
  <path d="M570.77,250.01h-62.94c1.18,18.69,21.22,25.22,36.27,16.79,3.59-2.01,5.71-4.99,9.18-6.83l14.4,13.38c-7.14,10.86-20.52,16.82-33.34,17.67-73.27,4.89-69.36-101.56-2.06-95.94,18.06,1.51,38.48,18.29,38.48,37.45v17.48ZM544.79,233.03c.15-24.91-35.04-23.8-36.96,0h36.96Z"/>
  <path d="M684.66,88.17h-62.94c1.22,16.35,15.04,22.36,30.02,19.53,6.97-1.32,10.02-5.92,15.44-9.57l14.42,13.4c-21,27.9-70.05,22.81-83.34-10.38-15.43-38.54,16.01-78.27,57.24-66.23,13.5,3.94,29.15,21.53,29.15,35.78v17.48ZM658.68,71.18c-.83-25.45-34.39-23.49-37.96,0h37.96Z"/>
  <path d="M665.68,288.97h-25.97l-1.01-8.99c-14.62,17.54-53.98,14.77-57.67-10.75-5.09-35.2,29.93-40.46,56.68-35.2.97-18.05-14.51-21.52-28.95-16.46-4.6,1.61-8.18,5.18-12.38,6.41l-10.53-15.59c-.32-2.11,10.66-7.88,12.91-8.81,19.42-8.03,51.47-7.41,61.44,14.44,6.33,13.86,2.87,36.81,3.43,52.51.25,7.11,1.53,15.25,2.04,22.44ZM637.59,250.11c-10.15-3.48-32.52-3.14-30.79,12.27,1.25,11.19,15.62,11.5,23.61,6.81,7.99-4.69,7.93-10.56,7.18-19.08Z"/>
  <polygon points="29.8 3.25 57.28 54.2 85.74 3.25 116.21 3.25 71.26 79.67 71.26 127.13 43.28 127.13 43.28 79.67 -1.67 3.25 29.8 3.25"/>
  <path d="M241.09,35.22v58.44c0,1.53,3.04,7.84,4.34,9.15,5.52,5.58,18.26,4.29,23.1-1.7.49-.6,3.53-6.09,3.53-6.46v-59.44h26.97l1,91.91h-25.97v-10.98s-7.52,6.96-7.52,6.96c-20.91,13.96-48.76,4.15-51.42-22.46-2.02-20.17,1.97-42.96-.6-63.39l1.09-2.04h25.48Z"/>
  <path d="M901.16,106.87c11.87-11.94-20.28-17.31-26.22-19.68-12.2-4.88-20.02-12.43-19.51-26.52.99-26.96,35.27-31.81,55.68-24.64,2.71.95,13.76,7.08,14.87,9.18,1.45,2.73-9.94,13.6-12.2,15.92-6.32-4.11-12.9-8.83-20.85-9-10.47-.22-17.55,8.57-7.19,14.27,14.74,8.1,40.76,5.11,43.55,29.38,4.27,37.21-48.43,40.98-70.75,23.8-1.21-.93-5.68-5.07-5.95-6.13-.64-2.43,10.43-13.22,12.36-16.09,6.09,4.18,10.71,9.82,18.44,11.36,4.21.84,14.69,1.26,17.76-1.84Z"/>
  <path d="M564.77,7.25v27.97h21.98v19.98h-21.98v43.46c0,.54,2.31,5.3,2.96,6.03,5.43,6.06,18.29-.31,19.01.47l1.86,19.31c-.82,2.47-10.81,4.29-13.47,4.55-11.22,1.08-24.96-1.12-31.54-11.17-1.76-2.68-5.8-12.34-5.8-15.18v-47.45h-13.99v-19.98h13.99l1.01-23.97,25.97-4.01Z"/>
  <path d="M189.14,197.06v13.99c7.53-11.41,18.05-19.07,32.39-15.1l-.42,25.08c-12.43-2.97-24.57-.52-28.74,12.72-.78,2.48-2.23,9.53-2.23,11.76v43.46h-26.97v-91.91h25.97Z"/>
  <path d="M344.99,35.22c0,1.92-.51,13.98,1.5,14,4.35-12.21,19.48-19.77,31.51-14.33l-1.05,24.31c-9.92-2.33-21.01-1.6-26.4,8.07-.87,1.56-3.57,8.19-3.57,9.42v50.45h-26.97V35.22h24.98Z"/>
  <path class="st0" d="M401.93,221.04v-33.97h25.48c.36,0,5.93,1.87,6.73,2.26,9.43,4.47,10.85,20.3,3.27,26.73-2.39,2.03-10.08,4.98-13,4.98h-22.48Z"/>
  <path class="st0" d="M721.36,217.28c30.5-5.2,31.25,48.51,7.67,51.61-30.09,3.96-30.2-47.77-7.67-51.61Z"/>
  <path class="st0" d="M167.82,61.54c13.1,14.78,5.64,48.54-18.05,45.52-27.76-3.53-24.21-59.95,9.22-51.18,2.4.63,7.21,3.82,8.83,5.65Z"/>
  <path class="st0" d="M254.08,233.03c.96-14.46,15.63-22.91,28.67-16.18,4.31,2.23,9.91,11.13,9.29,15.67-.32,2.34-2.37.52-2.5.52h-35.47Z"/>
  <path class="st0" d="M117.1,250.11c.65,8.23.99,13.91-6.55,18.71-17.94,11.45-33.08-8.78-18.65-17.65,7.43-4.56,17.07-2.61,25.19-1.06Z"/>
  <path class="st0" d="M544.79,233.03h-36.96c1.92-23.8,37.12-24.91,36.96,0Z"/>
  <path class="st0" d="M658.68,71.18h-37.96c3.57-23.49,37.13-25.45,37.96,0Z"/>
  <path class="st0" d="M637.59,250.11c.76,8.53.81,14.4-7.18,19.08-7.99,4.69-22.36,4.38-23.61-6.81-1.73-15.42,20.63-15.76,30.79-12.27Z"/>
</svg>