<?xml version="1.0" encoding="UTF-8"?>
<svg id="Layer_1" xmlns="http://www.w3.org/2000/svg" version="1.1" viewBox="0 0 672.29 132.44">
  <!-- Generator: Adobe Illustrator 29.8.7, SVG Export Plug-In . SVG Version: 2.1.1 Build 1)  -->
  <defs>
    <style>
      .st0 {
        fill: #fff;
      }
    </style>
  </defs>
  <path class="st0" d="M848.18-444.49V579.51H-175.82V-444.49H848.18ZM239.78,2.07c-10.32,2.21-21.16,2.84-31.47,4.99-1.29.27-2.73,0-3.48,1.52-1.04,2.13,6.07,1.41,6.44,4.52l2.53,8.46c-1.79,31.2,2.42,65.06.05,95.94-.57,7.49-1.43,9.23-9.04,10.96.01,2.25,1.74,2.34,3.46,2.54,11.62,1.32,25.92-.93,37.84-.22l1.67-2.82c-3.33.6-7.99-3.46-7.99-6.5V2.07ZM569.46,46.03l-30.62,4.96c-3.72-2.91-14.47-2.05-16.82-3.97-2.99-2.44-8.08-16.32-8.49-20.48-.89-9.09,1.67-21.73,13.45-19.44,10.5,2.04-.78,13.07-.58,18.47.59,15.57,28.38,14.36,25.01-6.95-1.13-7.15-10.8-14.25-17.65-15.31-13.94-2.15-29.83,1.65-35.96,15.51-.95,2.15-3.26,9.81-3.26,11.72v17.48h-10.99s-.01,4.42-.01,4.42l11.01.58v69.43c0,2.52-5.43,5.55-7.94,5.56l-.05,2.93h41.46l1.49-2.48c-1.12-1.98-4.68-1.61-5.78-2.73-.23-.24-2.21-5.95-2.21-6.28V53.02c8.14-.2,18.85-1.7,20.74,8.73,3.09,17.08-1.77,41.75.18,59.65-.64,4.11-3.89,6.56-7.93,6.56-.42.93.89,2.99,1.5,2.99h38.96l1.5-2.48c-.35-1.43-6.02-1.2-6.93-7.07-1.34-8.68-.88-33.6-.04-42.88.44-4.91,2.64-14.24,7.05-16.92,6.78-4.12,13.05.54,13.93,7.89,1.96,16.24-1.48,36.28-.05,52.94-.66,3.54-4.82,5.1-7.97,5.54l1,2.98h40.96c1.25-4.4-3.97-3.87-5.08-5.65-2.8-4.5-2.37-36.68-1.9-43.79.36-5.44,1.5-17.48,6.6-20.38,5.62-3.19,12.31-.3,13.9,5.85,1.56,6.03,1.39,46.15.38,53.39-.22,1.54-.85,4-1.85,5.14-1.65,1.87-6.84,1.77-6.04,3.93.6,1.59,5.98,1.48,7.42,1.54,4.54.2,34.44.45,35.52-1.04-2.04-5.29-6.85-1.79-7.92-9.55-2.36-17.01,3.84-49.54-2.02-63.91-6.66-16.32-29.81-13.33-40.54-2.5-1.96,1.98-3.17,5.49-5.44,7.02-3.11-17.95-24.06-19.91-36.89-10.39-4.7,3.49-7.2,8.33-11.08,12.4v-16.98ZM19.72,7.3c-14.92,3.1-16.04,27.33,1.25,30.31,23.3,4.02,24.63-35.68-1.25-30.31ZM362.66,20.05l-3.09.59c-4.04,15.36-17.11,25.91-32.77,27.48l-.11,4.9h9s0,61.44,0,61.44c0,.88,1.58,6.66,2.09,7.9,5.2,12.62,28.98,12.76,37.37,4.58s-2.04-3.11-4.09-3.03c-4.72.18-8.39-5.2-8.39-9.46v-61.44h13.99v-5s-13.99-.99-13.99-.99v-26.97ZM36.98,45.03L2.03,51.52c5.7,2.83,7.39,2.93,8.03,9.94,1.75,19.33-1.39,41.34-.08,60.97-.04,1.13-.75,1.79-1.39,2.6-1.48,1.87-6.23,2.61-5.56,4.4.4,1.08,7.05,1.49,8.44,1.55,6.81.33,15.24.32,22.06,0,3.47-.16,6.48-1.98,10-.36l1.45-2.67c-2.62.72-7.99-3.35-7.99-5.5V45.03ZM107.91,46.03c-3.11-.56-4.6,2.76-7.44,2.87-4.95.2-13.91-3.81-20.03-3.94-32.94-.7-45.81,35.18-15.8,52.82,7.43,4.37,26.81,8.86,28.22,17.74,2.37,14.92-16.06,15.54-25.25,9.26-2.74-1.87-5.71-5.71-7.48-8.5-2.06-3.24-5.18-12.73-6.67-14.31-1.18-1.26-1.9-1.12-3.5-1v29.97c3.39.43,5.03-1.95,8.46-2.11,6-.27,14.41,3.81,21.03,4.1,32.21,1.41,47.59-33.05,18.76-50.75-7.73-4.75-29.7-9.34-31.21-18.73-2.21-13.73,11.45-17.26,21.63-11.64,2.33,1.29,6.04,5.12,7.7,7.29,2.75,3.61,6.23,13.15,8.1,14.88,1.26,1.17,1.78,1.21,3.48,1.02v-28.97ZM155.66,45.32c-50.39,5.35-50.11,83.19.72,87.6,62.48,5.42,64.41-94.51-.72-87.6ZM329.68,121.96c-4.73-.07-7.25,1.45-8.55-3.94-3.16-13.18,1.22-35.78-.55-50.4-3.76-31.02-64.75-27.68-67.74-3.01-2.36,19.41,27.25,19.16,25.89,5.99-.47-4.5-9.29-16.89.96-20.13,13.94-4.4,16.76,18.88,15.04,28.03-.51,2.73-3.49,3.28-5.78,4.21-13.66,5.53-34.41,4.35-39.12,21.82-7.95,29.48,29.35,36.63,44.4,16.45,1.79,1.39,1.29,3.66,2.46,5.51,5.53,8.76,30.65,7.55,33-4.53ZM450.57,84.99c1.27-60.82-80.73-48.77-75.8,9.36,3.98,46.88,65.57,52.82,75.79,7.63l-9.05,8.42c-20.25,12.34-41.73-2.46-40.9-25.41h49.95ZM466.32,103.17c-5.87.82-11.66,5.49-12.54,11.55-2.23,15.41,18.73,23.02,26.61,9.58,5.88-10.03-2.83-22.71-14.07-21.14Z"/>
  <path d="M569.46,46.03v16.98c3.88-4.06,6.38-8.91,11.08-12.4,12.83-9.52,33.78-7.55,36.89,10.39,2.27-1.53,3.48-5.04,5.44-7.02,10.72-10.83,33.88-13.82,40.54,2.5,5.86,14.37-.34,46.89,2.02,63.91,1.08,7.76,5.89,4.25,7.92,9.55-1.08,1.48-30.97,1.24-35.52,1.04-1.44-.06-6.83.05-7.42-1.54-.81-2.16,4.38-2.06,6.04-3.93,1.01-1.14,1.64-3.6,1.85-5.14,1.01-7.23,1.18-47.36-.38-53.39-1.59-6.15-8.28-9.04-13.9-5.85-5.09,2.89-6.24,14.94-6.6,20.38-.47,7.11-.9,39.29,1.9,43.79,1.11,1.78,6.33,1.26,5.08,5.65h-40.96l-1-2.98c3.14-.44,7.31-1.99,7.97-5.54-1.43-16.67,2.01-36.7.05-52.94-.88-7.34-7.16-12-13.93-7.89-4.41,2.68-6.61,12.01-7.05,16.92-.83,9.28-1.3,34.2.04,42.88.91,5.87,6.58,5.64,6.93,7.07l-1.5,2.48h-38.96c-.61,0-1.92-2.06-1.5-2.99,4.04,0,7.29-2.45,7.93-6.56-1.95-17.9,2.91-42.57-.18-59.65-1.89-10.43-12.6-8.93-20.74-8.73v66.44c0,.33,1.98,6.04,2.21,6.28,1.1,1.12,4.66.75,5.78,2.73l-1.49,2.48h-41.46l.05-2.93c2.51-.02,7.94-3.05,7.94-5.56V53.02l-11.01-.58v-4.42s11.01,0,11.01,0v-17.48c0-1.91,2.31-9.57,3.26-11.72,6.13-13.87,22.02-17.67,35.96-15.51,6.86,1.06,16.52,8.16,17.65,15.31,3.37,21.31-24.42,22.52-25.01,6.95-.21-5.4,11.08-16.44.58-18.47-11.78-2.28-14.33,10.36-13.45,19.44.41,4.17,5.49,18.04,8.49,20.48,2.35,1.92,13.1,1.06,16.82,3.97l30.62-4.96Z"/>
  <path d="M329.68,121.96c-2.35,12.08-27.47,13.29-33,4.53-1.17-1.85-.67-4.12-2.46-5.51-15.04,20.19-52.35,13.03-44.4-16.45,4.71-17.47,25.46-16.29,39.12-21.82,2.29-.93,5.27-1.47,5.78-4.21,1.72-9.15-1.1-32.43-15.04-28.03-10.24,3.23-1.43,15.62-.96,20.13,1.37,13.16-28.24,13.41-25.89-5.99,2.99-24.67,63.98-28.01,67.74,3.01,1.77,14.62-2.61,37.21.55,50.4,1.29,5.4,3.81,3.87,8.55,3.94ZM294.72,115.46v-32.47c-13.02,4.52-22.17,16.78-18.51,31,2.58,10.01,16.87,8.66,18.51,1.47Z"/>
  <path d="M155.66,45.32c65.13-6.91,63.2,93.03.72,87.6-50.83-4.41-51.11-82.26-.72-87.6ZM160.34,49.5c-5.63.15-9.32,5.8-10.95,10.54-4.2,12.23-4.14,47.2.68,59.2,5.1,12.7,17.73,12.84,22.24-.32,4.58-13.37,4.75-46.4-.29-59.6-1.96-5.14-5.58-9.99-11.69-9.83Z"/>
  <path d="M450.57,84.99h-49.95c-.83,22.95,20.64,37.75,40.9,25.41l9.05-8.42c-10.22,45.19-71.82,39.25-75.79-7.63-4.93-58.13,77.07-70.18,75.8-9.36ZM425.6,80.99c2.01-8.84,2.72-31.07-10.49-31.06-12.5.01-15.06,21.72-14.49,31.06h24.98Z"/>
  <path d="M239.78,2.07v119.38c0,3.05,4.66,7.1,7.99,6.5l-1.67,2.82c-11.92-.71-26.22,1.54-37.84.22-1.72-.19-3.44-.29-3.46-2.54,7.62-1.73,8.47-3.47,9.04-10.96,2.36-30.88-1.84-64.74-.05-95.94l-2.53-8.46c-.37-3.11-7.49-2.4-6.44-4.52.75-1.53,2.19-1.25,3.48-1.52,10.32-2.15,21.15-2.78,31.47-4.99Z"/>
  <path d="M107.91,46.03v28.97c-1.7.19-2.22.16-3.48-1.02-1.86-1.74-5.34-11.28-8.1-14.88-1.66-2.17-5.36-6-7.7-7.29-10.17-5.61-23.84-2.09-21.63,11.64,1.51,9.4,23.48,13.99,31.21,18.73,28.84,17.7,13.45,52.16-18.76,50.75-6.62-.29-15.04-4.37-21.03-4.1-3.44.15-5.07,2.54-8.46,2.11v-29.97c1.6-.12,2.31-.26,3.5,1,1.49,1.58,4.61,11.07,6.67,14.31,1.77,2.79,4.75,6.63,7.48,8.5,9.2,6.28,27.63,5.66,25.25-9.26-1.41-8.89-20.79-13.37-28.22-17.74-30.02-17.64-17.15-53.52,15.8-52.82,6.12.13,15.07,4.14,20.03,3.94,2.83-.11,4.32-3.43,7.44-2.87Z"/>
  <path d="M362.66,20.05v26.97l13.99.99v5h-13.99v61.44c0,4.25,3.68,9.64,8.39,9.46,2.05-.08,12.36-5.04,4.09,3.03s-32.17,8.04-37.37-4.58c-.51-1.24-2.09-7.02-2.09-7.9v-61.44h-9s.11-4.89.11-4.89c15.66-1.57,28.74-12.12,32.77-27.48l3.09-.59Z"/>
  <path d="M36.98,45.03v77.42c0,2.15,5.38,6.22,7.99,5.5l-1.45,2.67c-3.51-1.62-6.53.2-10,.36-6.81.32-15.25.33-22.06,0-1.4-.07-8.04-.47-8.44-1.55-.67-1.79,4.08-2.53,5.56-4.4.64-.81,1.35-1.47,1.39-2.6-1.31-19.63,1.83-41.63.08-60.97-.64-7.01-2.33-7.11-8.03-9.94l34.95-6.49Z"/>
  <path d="M19.72,7.3c25.88-5.37,24.54,34.33,1.25,30.31-17.29-2.98-16.16-27.21-1.25-30.31Z"/>
  <path d="M466.32,103.17c11.25-1.57,19.95,11.1,14.07,21.14-7.88,13.44-28.84,5.83-26.61-9.58.88-6.07,6.67-10.73,12.54-11.55Z"/>
  <path class="st0" d="M294.72,115.46c-1.64,7.19-15.93,8.54-18.51-1.47-3.66-14.22,5.49-26.48,18.51-31v32.47Z"/>
  <path class="st0" d="M160.34,49.5c6.11-.16,9.73,4.69,11.69,9.83,5.04,13.2,4.86,46.23.29,59.6-4.51,13.16-17.14,13.02-22.24.32-4.82-12-4.88-46.98-.68-59.2,1.63-4.74,5.32-10.39,10.95-10.54Z"/>
  <path class="st0" d="M425.6,80.99h-24.98c-.58-9.34,1.99-31.05,14.49-31.06,13.21-.01,12.5,22.22,10.49,31.06Z"/>
</svg>