<?xml version="1.0" encoding="UTF-8"?>
<svg id="Layer_1" xmlns="http://www.w3.org/2000/svg" version="1.1" viewBox="0 0 1029.47 537.06">
  <!-- Generator: Adobe Illustrator 29.8.7, SVG Export Plug-In . SVG Version: 2.1.1 Build 1)  -->
  <defs>
    <style>
      .st0 {
        fill: #fff;
      }
    </style>
  </defs>
  <path class="st0" d="M1024-297.22v1024H0V-297.22h1024ZM397.61,3.49h-39.96v32.47l-1.5,1.5h-15.48v31.97h16.98v68.43c0,16.54,20.66,33.47,36.46,33.47h30.47v-33.97h-18.48c-2.83,0-8.49-6.61-8.49-9.49v-58.44h26.97v-31.97h-26.97V3.49ZM289.22,80.42h34.97c2.66,0,.6-7.45.2-9.19-12.63-54.55-115.81-46.39-109.48,10.59,3.6,32.44,43.24,30.15,64.81,40.08,7.82,3.6,12.4,11.1,4.5,17.46-9.93,7.99-33.34,2.08-33.46-12.98h-39.96c2.56,40.8,48.9,53.09,82.93,44.46,24.5-6.21,39.83-28.84,30.74-53.73-9.13-24.99-42.47-23.27-62.7-32.21-6.59-2.91-11.43-6.64-7.52-14.49,4.34-8.7,22.52-7.08,28.97-.97,3.44,3.26,3.44,7.43,6.01,10.98ZM572.44,113.38v-21.48c0-27.81-26.54-51.86-52.72-56.17-53.7-8.83-88.22,32.99-78.7,84.69,12.47,67.72,111.92,71.74,129.42,5.94h-42.46c-11.5,20.89-40.57,17.4-46.97-5.97-.57-2.08-1.97-5.79.02-7.02h91.41ZM634.38,51.44v-13.99h-39.96v133.87h39.96v-78.42c0-1.01,1.68-7.37,2.21-8.78,6.32-17.15,34.88-19.06,42.93-2.38.52,1.09,2.82,7.58,2.82,8.17v81.42h40.96v-80.42c0-4.55,5.29-13.13,9.06-15.92,8.55-6.32,24.96-6.81,32.45,1.39,2.28,2.5,6.45,12.43,6.45,15.53v79.42h39.96v-91.41c0-3.03-4.26-15.84-5.81-19.17-15.54-33.3-71.65-33.92-89.11-2.32-3.07.28-3.29-3.55-4.98-5.49-16.84-19.43-47.66-24.05-68.87-8.93-2.9,2.07-5.36,5.16-8.06,7.43ZM567.46,293.2c-1.87-5.31-3.82-10.6-5.5-15.99-5.39-17.19-15.62-70.15-24.95-80.95-13.21-15.27-21.72,9.22-25,19.02-7.35,21.98-9.61,46.62-20.99,66.91-3.55,0-20.61-59.09-24.28-66.61s-9.23-14.11-18.75-10.37c-9.94,3.9-12.69,27.47-18.17,35.78-.75,1.13-1.04,2.21-2.73,2.27l-212.84-.05c-6.9-.17-10.61,6.06-4.43,10.51l220.17.43c14.2-2.02,14.79-28.63,23.07-37.85,3.85-.08,21.67,62.09,27.28,70.61s14.48,10.83,21.01,1.64c9.6-13.53,15.29-49.6,20.88-67.04,1.7-5.29,3.17-12.43,7.25-16.22,1.83,5.31,3.86,10.59,5.5,15.98,6.74,22.1,10.95,50.64,19.72,71.19,3.57,8.36,8.36,15.34,18.72,12.15,10.09-3.11,16.27-48.37,21.67-50.22l224.64-.14,4.99-2c1.23-2.07.61-7.35-1.74-8.34l-229.98-.6c-16.2,2.5-15.2,39.92-25.53,49.88ZM471.3,302.46c-25.09,3.63-23.03,44.14,9.74,40.7,14.77-1.55,24.07-16.35,17.03-30.03-5.2-10.1-16.38-12.17-26.77-10.67ZM428.58,313.19h-39.96v170.83h39.96v-170.83ZM570.44,323.18h-38.96v32.97h-15.98v31.97h15.98v61.44c0,17.59,18.22,34.47,35.47,34.47h30.47v-32.97h-18.48c-1.58,0-5.54-3.01-6.37-4.62-.53-1.02-2.12-7.07-2.12-7.87v-50.45h25.97v-31.97h-24.48l-1.5-1.5v-31.47ZM664.35,323.18h-38.96v32.97h-15.98v31.97h15.98v62.44c0,17.18,18.81,33.47,35.47,33.47h30.47v-32.97h-18.48c-3.83,0-8.49-7.1-8.49-10.49v-52.45h25.97v-31.97h-25.97v-32.97ZM206.8,397.11c-.26-58.78-113.32-57.36-107.88,1.49,2.88,31.15,40.24,29.92,61.9,37.99,13.08,4.88,12.06,18.04-.72,20.22-10.96,1.87-24.9-2.32-26.23-14.75h-38.96c1.4,18.08,14.42,33.09,30.99,39.44,26.42,10.13,78.31,5.69,81.89-29.96,2.41-24.02-10.11-34.18-31.2-40.71-8.89-2.75-46.19-7-39.98-21.45,5.28-12.28,34.28-7.89,33.23,7.72h36.96ZM270.74,468.04c9.31,9.45,18.87,16.49,32.59,17.86,84.7,8.48,86.7-139.4-.11-131.73-12.94,1.14-23.66,7.95-32.48,16.97v-14.99h-38.96v183.82h38.96v-71.93ZM834.19,429.07v-21.48c0-21.84-21.64-45.13-41.96-50.95-54.83-15.72-98.06,27.95-84.62,82.62,14.99,61.01,108.36,63.88,123.58,2.79h-41.96c-11.03,23.19-44.44,11.31-44.96-12.99h89.91ZM936.09,354.15c-18.43.08-28.88,6.8-39.67,20.72-.65.83.03,1.81-2.29,1.26v-16.48c0-.5,1.58-2.1,1-3.5h-39.96v127.88h39.96v-66.44c0-1.77,4.1-11.71,5.45-13.53,2.54-3.4,12.04-8.95,16.03-8.95h19.48v-40.96ZM496.52,356.15h-38.96v127.88h38.96v-127.88Z"/>
  <path d="M567.46,293.2c10.33-9.96,9.33-47.38,25.53-49.88l229.98.6c2.35.99,2.97,6.27,1.74,8.34l-4.99,2-224.64.14c-5.4,1.85-11.58,47.11-21.67,50.22-10.35,3.19-15.15-3.79-18.72-12.15-8.77-20.55-12.98-49.09-19.72-71.19-1.65-5.39-3.67-10.67-5.5-15.98-4.08,3.79-5.55,10.92-7.25,16.22-5.58,17.44-11.27,53.5-20.88,67.04-6.53,9.19-15.27,7.08-21.01-1.64s-23.43-70.68-27.28-70.61c-8.28,9.22-8.86,35.83-23.07,37.85l-220.17-.43c-6.18-4.45-2.48-10.69,4.43-10.51l212.84.05c1.69-.05,1.98-1.13,2.73-2.27,5.49-8.31,8.23-31.87,18.17-35.78s14.95,2.6,18.75,10.37,20.73,66.61,24.28,66.61c11.38-20.29,13.64-44.93,20.99-66.91,3.28-9.8,11.79-34.29,25-19.02,9.33,10.79,19.56,63.75,24.95,80.95,1.69,5.38,3.64,10.68,5.5,15.99Z"/>
  <path class="st0" d="M319.33,396.46c16.06,16.89,7.51,54.15-18.16,55.61-26.94,1.53-38.49-34.15-23.44-53.47,10.15-13.02,30.25-14.09,41.6-2.14Z"/>
  <g>
    <path d="M634.38,51.44c2.69-2.27,5.16-5.36,8.06-7.43,21.21-15.13,52.03-10.51,68.87,8.93,1.69,1.95,1.91,5.77,4.98,5.49,17.46-31.6,73.57-30.98,89.11,2.32,1.55,3.33,5.81,16.14,5.81,19.17v91.41h-39.96v-79.42c0-3.11-4.16-13.03-6.45-15.53-7.48-8.2-23.9-7.71-32.45-1.39-3.77,2.79-9.06,11.37-9.06,15.92v80.42h-40.96v-81.42c0-.59-2.29-7.09-2.82-8.17-8.05-16.68-36.61-14.76-42.93,2.38-.52,1.42-2.21,7.78-2.21,8.78v78.42h-39.96V37.46h39.96v13.99Z"/>
    <path d="M572.44,113.38h-91.41c-1.99,1.24-.59,4.95-.02,7.02,6.4,23.37,35.48,26.86,46.97,5.97h42.46c-17.5,65.8-116.95,61.77-129.42-5.94-9.52-51.71,25-93.52,78.7-84.69,26.18,4.31,52.72,28.36,52.72,56.17v21.48ZM531.48,90.41c-2.74-31.83-47.66-30.97-50.95,0h50.95Z"/>
    <g>
      <path d="M289.22,80.42c-2.56-3.55-2.56-7.72-6.01-10.98-6.45-6.11-24.63-7.74-28.97.97-3.92,7.85.93,11.58,7.52,14.49,20.23,8.93,53.57,7.21,62.7,32.21,9.09,24.88-6.24,47.52-30.74,53.73-34.02,8.63-80.37-3.67-82.93-44.46h39.96c.12,15.06,23.53,20.97,33.46,12.98,7.89-6.35,3.32-13.85-4.5-17.46-21.57-9.93-61.21-7.65-64.81-40.08-6.33-56.98,96.86-65.14,109.48-10.59.4,1.74,2.46,9.19-.2,9.19h-34.97Z"/>
      <path d="M397.61,3.49v33.97h26.97v31.97h-26.97v58.44c0,2.88,5.66,9.49,8.49,9.49h18.48v33.97h-30.47c-15.81,0-36.46-16.93-36.46-33.47v-68.43h-16.98v-31.97h15.48l1.5-1.5V3.49h39.96Z"/>
    </g>
    <path class="st0" d="M531.48,90.41h-50.95c3.29-30.97,48.21-31.83,50.95,0Z"/>
  </g>
  <g>
    <g>
      <path d="M270.74,468.04v71.93h-38.96v-183.82h38.96v14.99c8.83-9.02,19.55-15.82,32.48-16.97,86.81-7.67,84.81,140.22.11,131.73-13.72-1.37-23.28-8.41-32.59-17.86ZM319.33,396.46c-11.36-11.94-31.46-10.88-41.6,2.14-15.05,19.32-3.5,55,23.44,53.47,25.68-1.46,34.23-38.72,18.16-55.61Z"/>
      <path d="M206.8,397.11h-36.96c1.06-15.61-27.95-20-33.23-7.72-6.21,14.45,31.1,18.69,39.98,21.45,21.08,6.53,33.61,16.69,31.2,40.71-3.58,35.65-55.46,40.09-81.89,29.96-16.58-6.35-29.59-21.36-30.99-39.44h38.96c1.33,12.43,15.28,16.61,26.23,14.75,12.77-2.18,13.8-15.34.72-20.22-21.66-8.08-59.03-6.85-61.9-37.99-5.44-58.85,107.63-60.27,107.88-1.49Z"/>
    </g>
    <g>
      <rect x="388.62" y="313.19" width="39.96" height="170.83"/>
      <g>
        <rect x="457.55" y="356.15" width="38.96" height="127.88"/>
        <path d="M471.3,302.46c10.39-1.5,21.58.57,26.77,10.67,7.04,13.68-2.26,28.49-17.03,30.03-32.77,3.43-34.83-37.07-9.74-40.7Z"/>
      </g>
    </g>
    <g>
      <path d="M834.19,429.07h-89.91c.52,24.3,33.93,36.18,44.96,12.99h41.96c-15.22,61.09-108.59,58.21-123.58-2.79-13.44-54.67,29.79-98.34,84.62-82.62,20.32,5.83,41.96,29.11,41.96,50.95v21.48ZM794.22,408.1c-1.42-31.16-46.44-30.31-48.95,0h48.95Z"/>
      <g>
        <path d="M664.35,323.18v32.97h25.97v31.97h-25.97v52.45c0,3.39,4.66,10.49,8.49,10.49h18.48v32.97h-30.47c-16.65,0-35.47-16.29-35.47-33.47v-62.44h-15.98v-31.97h15.98v-32.97h38.96Z"/>
        <path d="M570.44,323.18v31.47l1.5,1.5h24.48v31.97h-25.97v50.45c0,.79,1.6,6.84,2.12,7.87.83,1.61,4.79,4.62,6.37,4.62h18.48v32.97h-30.47c-17.24,0-35.47-16.87-35.47-34.47v-61.44h-15.98v-31.97h15.98v-32.97h38.96Z"/>
      </g>
      <path d="M936.09,354.15v40.96h-19.48c-3.99,0-13.49,5.55-16.03,8.95-1.36,1.82-5.45,11.76-5.45,13.53v66.44h-39.96v-127.88h39.96c.58,1.4-1,2.99-1,3.5v16.48c2.32.55,1.64-.43,2.29-1.26,10.79-13.91,21.24-20.64,39.67-20.72Z"/>
      <path class="st0" d="M794.22,408.1h-48.95c2.51-30.31,47.53-31.16,48.95,0Z"/>
    </g>
  </g>
</svg>